PathFileType	4	(X/Y/Z)	C:/Users/opensim2020/Desktop/walking_exp_matlab/subject01_walking13_straight_02.trc																																																																																																																												
DataRate	CameraRate	NumFrames	NumMarkers	Units	OrigDataRate	OrigDataStartFrame	OrigNumFrames																																																																																																																								
100	100	8	42	mm	100	1239	172																																																																																																																								
Frame#	Time	LFHD			RFHD			LBHD			RBHD			C7			T10			CLAV			STRN			RBAK			LSHO			LUPA			LELB			LFRM			LWRA			LWRB			LFIN			RSHO			RUPA			RELB			RFRM			RWRA			RWRB			RFIN			LASI			RASI			LPSI			RPSI			LTHI			LKNE			LTIB			LANK			LHEE			LTOE			RTHI			RKNE			RTIB			RANK			RHEE			RTOE			*39			*40			*41		
		X1	Y1	Z1	X2	Y2	Z2	X3	Y3	Z3	X4	Y4	Z4	X5	Y5	Z5	X6	Y6	Z6	X7	Y7	Z7	X8	Y8	Z8	X9	Y9	Z9	X10	Y10	Z10	X11	Y11	Z11	X12	Y12	Z12	X13	Y13	Z13	X14	Y14	Z14	X15	Y15	Z15	X16	Y16	Z16	X17	Y17	Z17	X18	Y18	Z18	X19	Y19	Z19	X20	Y20	Z20	X21	Y21	Z21	X22	Y22	Z22	X23	Y23	Z23	X24	Y24	Z24	X25	Y25	Z25	X26	Y26	Z26	X27	Y27	Z27	X28	Y28	Z28	X29	Y29	Z29	X30	Y30	Z30	X31	Y31	Z31	X32	Y32	Z32	X33	Y33	Z33	X34	Y34	Z34	X35	Y35	Z35	X36	Y36	Z36	X37	Y37	Z37	X38	Y38	Z38	X39	Y39	Z39	X40	Y40	Z40	X41	Y41	Z41	X42	Y42	Z42
																																																																																																																															
151	1.5	673.12286	1641.89734	-1499.13818	664.74146	1637.87207	-1385.40942	553.70099	1613.21863	-1516.995	541.80829	1608.82507	-1396.53223	485.54651	1407.66772	-1481.48389	466.21091	1108.78528	-1478.71362	631.56152	1343.1123	-1474.17798	684.07776	1194.41797	-1487.3811	439.11765	1202.43494	-1414.82886	573.56879	1378.92371	-1637.00281	551.06189	1208.27991	-1740.24902	562.09558	1060.52844	-1777.125	669.2381	1007.12115	-1793.63293	802.15234	985.18085	-1763.26172	772.11829	943.42902	-1792.89417	853.19189	937.63635	-1804.40393	558.23981	1360.95129	-1325.05835	472.94196	1166.47058	-1239.49487	456.32401	1045.53552	-1236.55835	452.0257	927.03339	-1204.05603	500.40872	794.17505	-1215.71985	455.14346	805.87402	-1182.3949	478.49039	726.07477	-1172.62109	647.50323	911.95154	-1598.08911	670.17596	918.7323	-1384.87939	466.83984	917.87921	-1528.04626	484.49191	920.68555	-1382.47717	580.7655	578.37836	-1666.70532	550.6651	445.63153	-1664.67224	397.04889	339.36453	-1669.89478	230.38997	195.10118	-1622.01465	194.43987	223.11624	-1569.32861	250.79291	48.16439	-1591.74915	706.07239	592.29871	-1340.72668	752.82092	443.44348	-1382.22729	717.82898	268.33041	-1382.61707	704.71887	68.8731	-1444.41199	655.98615	32.2999	-1495.39587	845.36115	31.6257	-1446.86389	661.82678	1673.94104	-1406.82471	-1973.18701	1023.53973	3102.01978	-2012.50818	1022.14423	3140.72632
152	1.51	685.63904	1642.76794	-1496.27661	676.51898	1638.09045	-1382.64758	566.29486	1614.2981	-1515.00684	553.72028	1609.22827	-1394.65588	497.77252	1408.89478	-1480.43811	478.14294	1109.83606	-1477.85547	643.49902	1343.88379	-1473.0415	695.8761	1195.15393	-1486.32153	450.86545	1203.55627	-1413.78711	585.82074	1379.90955	-1635.96533	562.12695	1208.99524	-1738.81482	570.95862	1060.86377	-1774.52661	676.98975	1005.0235	-1791.3136	809.6286	980.14404	-1761.57568	778.29132	938.88263	-1790.67151	859.19141	930.62738	-1802.47095	570.40009	1361.88879	-1323.93884	486.60626	1166.41541	-1238.54639	471.05969	1045.45093	-1235.72095	467.96005	926.76025	-1203.56885	518.01569	794.47253	-1215.48853	472.43546	805.65924	-1181.91003	496.54321	726.04327	-1172.59741	660.15082	913.13947	-1596.72046	681.76593	920.22052	-1382.97266	479.34311	918.02246	-1527.20825	495.93326	921.30035	-1381.6062	601.39465	578.11639	-1666.54529	575.07422	444.71347	-1665.39417	421.55029	339.16153	-1672.49878	250.84772	201.10374	-1622.63831	215.23032	228.45094	-1568.78906	269.68878	52.82475	-1596.28113	713.10284	592.0426	-1339.86633	759.07312	442.97046	-1380.99622	721.41528	268.64032	-1382.50244	705.00049	69.21525	-1444.47205	656.00641	32.534	-1495.48181	845.55792	31.67715	-1446.96399	673.35382	1674.19153	-1403.5769	-1973.10742	1023.61273	3101.88403	-2012.4646	1021.96112	3140.72852
153	1.52	698.25354	1643.67651	-1493.52881	688.52057	1638.40466	-1379.95227	578.96027	1615.53394	-1513.04871	565.67157	1609.83228	-1392.80261	509.7291	1410.05957	-1479.39978	490.0744	1111.03235	-1476.92822	655.34265	1344.88208	-1472.08032	707.54742	1196.08374	-1485.40393	462.35788	1204.94214	-1412.62329	597.86682	1381.07117	-1634.98254	573.09894	1209.92249	-1737.5271	579.66663	1061.1958	-1771.7666	684.36652	1002.66724	-1788.92407	816.67419	974.72821	-1759.84863	784.00488	934.01733	-1788.33789	864.56506	923.22986	-1800.42456	582.08154	1362.8501	-1323.12634	500.22238	1166.54492	-1237.64929	485.57959	1045.5072	-1235.13672	483.90454	926.62323	-1203.16858	535.69604	795.09363	-1215.49927	490.18878	805.55347	-1181.84863	515.1897	726.32373	-1172.46716	672.49231	914.57526	-1595.57751	693.14056	921.53986	-1381.18079	491.50693	918.2417	-1526.36328	507.24994	921.98804	-1380.80542	622.02802	578.29657	-1666.37476	599.41174	444.47144	-1665.91333	445.72949	339.67892	-1674.34033	272.1308	206.39931	-1622.75562	237.27951	232.25102	-1567.22717	291.33054	57.33659	-1601.71277	718.98901	591.4151	-1339.11755	764.61737	442.29791	-1380.04248	724.27539	268.20184	-1381.74731	705.39111	69.47004	-1444.58533	656.09827	32.81637	-1495.42883	845.67816	31.40846	-1446.97754	685.3504	1674.60413	-1400.47864	-1973.09338	1023.91376	3101.97437	-2012.5675	1022.06378	3140.75928
154	1.53	710.83496	1644.59241	-1490.93604	700.31622	1638.76575	-1377.42737	591.62286	1616.94849	-1511.3136	577.55554	1610.73206	-1391.151	521.46436	1411.15247	-1478.50354	501.82187	1112.23499	-1475.99207	666.9823	1345.9375	-1471.17322	719.09052	1197.09607	-1484.52698	473.88614	1206.3761	-1411.30286	609.82098	1382.33716	-1634.00525	583.91718	1211.05298	-1736.38647	588.21033	1061.7124	-1768.94983	691.37152	1000.15326	-1786.53369	823.28241	968.99561	-1758.13367	789.13501	928.90417	-1785.9519	869.4046	915.44397	-1798.29919	593.91168	1364.07837	-1322.25	513.59021	1167.11621	-1236.55432	499.82224	1045.84131	-1234.51978	499.95187	926.76611	-1202.80383	553.3858	795.81616	-1215.75867	508.18008	805.85114	-1181.5802	534.57349	727.06763	-1172.46033	684.72174	916.10675	-1594.60413	704.11279	922.60101	-1379.55371	503.52203	918.53943	-1525.51843	518.57965	922.71228	-1379.80591	642.84064	579.08887	-1666.10388	623.61639	445.04575	-1666.26575	469.88666	340.88019	-1675.48816	295.18958	210.60333	-1622.36389	260.54236	234.68109	-1565.40356	315.21414	61.20929	-1607.04456	724.6377	590.82318	-1338.24646	769.73535	441.37009	-1378.93958	727.10602	267.76324	-1381.0188	706.15576	69.12469	-1444.25208	656.30243	33.4267	-1495.59778	845.80792	31.29991	-1447.05981	697.71552	1675.10913	-1397.70313	-1973.11548	1023.58838	3101.82153	-2012.58008	1022.18237	3140.56128
155	1.54	723.48724	1645.45093	-1488.48218	712.4267	1639.26062	-1375.03381	604.20929	1618.43469	-1509.67139	589.49109	1611.85425	-1389.58252	533.05194	1412.33948	-1477.70117	513.42975	1113.47864	-1475.10022	678.58203	1347.13159	-1470.40674	730.58777	1198.16797	-1483.70166	485.23608	1207.87073	-1410.14355	621.58673	1383.67737	-1633.14087	594.52631	1212.35107	-1735.2439	596.62592	1062.21765	-1766.17419	698.01721	997.57501	-1784.24316	829.44458	962.95703	-1756.36414	793.78101	923.66748	-1783.4895	873.62427	907.34741	-1796.0011	605.23413	1365.32446	-1321.66077	526.77936	1167.94873	-1235.52795	513.74133	1046.26782	-1233.91418	516.04169	927.00067	-1202.38403	572.27136	797.32166	-1215.62476	526.68878	806.0528	-1181.60339	554.58624	728.00006	-1172.5448	696.83087	917.59442	-1593.48853	715.0705	923.70007	-1377.90173	515.32526	919.12262	-1524.70935	529.71417	923.77179	-1378.97644	663.74731	580.67383	-1665.68982	647.82544	446.52631	-1666.38843	493.50543	342.05768	-1675.82202	319.80902	213.3461	-1621.80566	284.64108	235.89462	-1563.73083	341.00711	64.15424	-1612.03528	730.12817	589.68243	-1337.5459	774.45667	440.13373	-1377.84021	729.69452	267.50085	-1380.51208	706.33826	68.9831	-1444.39734	656.1106	33.1318	-1495.23987	845.94458	31.22435	-1446.96912	710.2215	1675.88574	-1395.23352	-1973.03479	1024.07593	3102.0437	-2012.49719	1022.02496	3140.70093
156	1.55	735.93109	1646.32324	-1486.22192	724.23212	1639.6925	-1372.83411	616.69946	1619.93542	-1508.11133	601.28766	1612.98706	-1388.18848	544.65887	1413.573	-1476.85376	524.82861	1114.81409	-1474.2157	690.09814	1348.33728	-1469.68787	741.91351	1199.24768	-1482.82495	496.60593	1209.28735	-1409.05859	633.20868	1385.02319	-1632.36304	604.91003	1213.65564	-1734.03723	605.03662	1062.85925	-1763.39331	704.38318	994.92493	-1781.77124	835.17767	956.75067	-1754.55164	797.99194	918.23187	-1781.04431	877.33557	899.19379	-1793.7334	616.83624	1366.62244	-1320.86279	539.84204	1168.98132	-1234.41235	527.35883	1046.81995	-1233.28101	532.08386	927.32947	-1202.00403	590.62781	798.66907	-1215.8551	545.19086	806.77972	-1181.5741	574.90259	729.21259	-1172.60693	708.92993	919.12054	-1592.29199	725.7688	924.61725	-1376.15491	527.06305	919.98413	-1523.92883	540.78754	924.91785	-1378.14026	684.66235	582.79718	-1665.09277	671.98486	448.95074	-1666.39014	519.24225	344.01334	-1675.62268	345.05237	214.86015	-1621.22693	309.11923	235.87088	-1562.23828	368.76117	66.37468	-1616.46802	735.95367	589.20728	-1336.5249	779.06244	439.189	-1376.7478	732.50708	266.92209	-1379.84814	706.3927	69.00288	-1444.18506	656.1228	33.50112	-1495.14978	846.01929	31.17341	-1446.92761	722.53235	1676.50037	-1392.91382	-1973.09656	1023.47565	3101.98657	-2012.48096	1022.02228	3140.62695
157	1.56	748.4234	1647.00293	-1484.06433	736.02142	1640.25354	-1370.80237	629.16962	1621.37048	-1506.70032	613.07043	1614.15771	-1386.89661	556.24432	1414.85742	-1476.11621	536.20715	1116.0437	-1473.34692	701.46448	1349.39539	-1468.9823	753.25055	1200.39343	-1481.98804	507.8186	1210.66187	-1408.17053	644.73706	1386.31226	-1631.7019	615.17487	1214.85815	-1732.80676	613.46271	1063.4574	-1760.68176	710.526	992.40631	-1779.35547	840.47339	950.35828	-1752.7019	801.82129	912.86969	-1778.61523	880.54602	890.87177	-1791.34314	628.07727	1367.97876	-1320.2998	552.5321	1169.96118	-1233.32715	540.78613	1047.41321	-1232.48718	548.15009	927.7691	-1201.51062	610.00677	800.78052	-1215.67041	564.3288	807.36292	-1181.42419	595.63269	730.62744	-1172.64771	721.0412	920.66815	-1590.86987	736.23077	925.40155	-1374.27222	538.81885	921.14349	-1523.29858	551.16516	926.38141	-1377.69128	705.38849	585.36932	-1664.48413	695.9679	451.77243	-1666.17151	544.40704	345.33249	-1674.9071	370.56311	215.4985	-1620.75842	333.74307	234.17097	-1560.65869	398.62039	67.73842	-1620.49463	742.47546	589.23297	-1335.52087	783.38055	438.2225	-1375.81226	735.01379	266.45828	-1379.13989	706.52679	68.99771	-1444.05139	656.24963	34.12545	-1495.13354	846.06525	31.10202	-1446.88733	734.68158	1677.03906	-1390.82544	-1973.11633	1023.58118	3101.84619	-2012.3988	1022.04346	3140.66162
158	1.57	760.74225	1647.73438	-1482.06274	747.80518	1640.73743	-1368.87805	641.53564	1622.68616	-1505.41235	624.78046	1615.24438	-1385.68372	567.72388	1416.2561	-1475.47583	547.51514	1117.18945	-1472.38818	712.76526	1350.33752	-1468.27258	764.4411	1201.37292	-1481.02771	518.88635	1211.93176	-1407.41003	656.25684	1387.54053	-1631.03174	625.36578	1215.85181	-1731.46753	621.85547	1064.07825	-1758.2041	716.43323	989.86212	-1776.95789	845.54504	944.04028	-1750.88477	805.23651	907.54089	-1776.18811	883.15436	882.54547	-1788.83032	639.40717	1369.26318	-1319.53796	565.01257	1170.9967	-1232.27783	553.98883	1048.0166	-1231.58704	564.17975	928.20935	-1201.01819	629.30463	803.00983	-1215.64087	583.401	808.25031	-1181.328	616.83087	732.39703	-1172.78235	733.20081	922.13263	-1589.1001	746.5257	926.12598	-1372.21448	550.3847	922.35101	-1522.89429	561.297	927.54553	-1377.27527	725.76526	588.13379	-1663.93152	719.65021	454.64404	-1665.80322	569.5509	346.53027	-1673.96594	396.30392	215.23555	-1620.50269	358.62775	231.07407	-1559.40723	430.51935	69.31792	-1624.72473	749.24725	589.24774	-1334.57263	787.39429	437.37622	-1374.81311	737.41614	266.0524	-1378.46741	706.84064	69.12225	-1443.76196	656.48944	34.82441	-1495.20471	846.07019	31.07228	-1446.77368	746.62732	1677.54834	-1388.79944	-1973.0426	1023.9527	3101.98047	-2012.53857	1022.12756	3140.77734
